<svg xmlns="http://www.w3.org/2000/svg" width="512" height="512" viewBox="0 0 512 512">
  <defs>
    <style>
      .icon { fill: none; stroke: #d7b86a; stroke-width: 3.2; stroke-linecap: round; stroke-linejoin: round; }
      .thin { fill: none; stroke: #d7b86a; stroke-width: 2.2; stroke-linecap: round; stroke-linejoin: round; }
      .accent { fill: none; stroke: #63c7d7; stroke-width: 3.2; stroke-linecap: round; stroke-linejoin: round; }
      .danger { fill: none; stroke: #c9493f; stroke-width: 3.2; stroke-linecap: round; stroke-linejoin: round; }
      .muted { fill: none; stroke: #7f7154; stroke-width: 2.4; stroke-linecap: round; stroke-linejoin: round; }
      .fill { fill: #d7b86a; stroke: none; }
      .accentFill { fill: #63c7d7; stroke: none; }
      .dangerFill { fill: #c9493f; stroke: none; }
    </style>
    <g id="ship-shape">
      <path class="icon" d="M12 35 L32 14 L52 35 L39 33 L32 50 L25 33 Z"/>
      <path class="thin" d="M32 14 V50 M22 35 H42"/>
    </g>
    <g id="person-shape">
      <circle class="icon" cx="32" cy="19" r="7"/>
      <path class="icon" d="M20 50 C21 38 25 31 32 31 C39 31 43 38 44 50"/>
    </g>
    <g id="chevron-up">
      <path class="icon" d="M18 40 L32 24 L46 40"/>
    </g>
  </defs>

  <g id="sector" transform="translate(0 0)">
    <circle class="icon" cx="32" cy="32" r="18"/>
    <path class="icon" d="M32 8 V56 M8 32 H56 M17 17 L47 47 M47 17 L17 47"/>
    <circle class="accentFill" cx="32" cy="32" r="4"/>
  </g>
  <g id="chapter" transform="translate(64 0)">
    <path class="icon" d="M16 47 L32 13 L48 47 Z"/>
    <path class="thin" d="M24 34 H40 M20 42 H44 M32 13 V47"/>
    <circle class="fill" cx="32" cy="27" r="3"/>
  </g>
  <g id="apothecarium" transform="translate(128 0)">
    <path class="icon" d="M32 12 V52 M12 32 H52"/>
    <circle class="icon" cx="32" cy="32" r="18"/>
  </g>
  <g id="reclusium" transform="translate(192 0)">
    <path class="icon" d="M22 18 H42 L37 50 H27 Z"/>
    <path class="thin" d="M25 18 L32 10 L39 18 M28 29 H36 M30 38 H34"/>
  </g>
  <g id="librarium" transform="translate(256 0)">
    <path class="icon" d="M16 15 H33 C39 15 43 19 43 25 V49 H24 C19 49 16 46 16 41 Z"/>
    <path class="thin" d="M24 15 V49 M31 24 H38 M31 32 H38 M31 40 H38"/>
  </g>
  <g id="armamentarium" transform="translate(320 0)">
    <path class="icon" d="M18 42 L42 18 M37 13 L51 27 M13 37 L27 51"/>
    <path class="icon" d="M18 18 L46 46"/>
  </g>
  <g id="training_unit" transform="translate(384 0)">
    <path class="icon" d="M18 48 H46"/>
    <path class="icon" d="M24 48 V25 L32 15 L40 25 V48"/>
    <path class="thin" d="M22 31 H42 M26 39 H38"/>
  </g>
  <g id="fleet" transform="translate(448 0)">
    <use href="#ship-shape"/>
  </g>

  <g id="diplomacy" transform="translate(0 64)">
    <circle class="icon" cx="22" cy="25" r="9"/>
    <circle class="icon" cx="42" cy="25" r="9"/>
    <path class="icon" d="M15 45 C19 38 25 36 32 42 C39 36 45 38 49 45"/>
  </g>
  <g id="archive" transform="translate(64 64)">
    <path class="icon" d="M15 18 H49 V50 H15 Z"/>
    <path class="thin" d="M19 14 H45 M23 26 H41 M23 35 H41 M23 44 H35"/>
  </g>
  <g id="end_turn" transform="translate(128 64)">
    <path class="icon" d="M14 18 L30 32 L14 46"/>
    <path class="icon" d="M32 18 L48 32 L32 46"/>
  </g>
  <g id="save" transform="translate(192 64)">
    <path class="icon" d="M17 13 H41 L49 21 V51 H15 V13"/>
    <path class="thin" d="M23 13 V27 H39 V13 M23 51 V38 H41 V51"/>
  </g>
  <g id="settings" transform="translate(256 64)">
    <circle class="icon" cx="32" cy="32" r="7"/>
    <path class="icon" d="M32 10 V17 M32 47 V54 M10 32 H17 M47 32 H54 M16 16 L21 21 M43 43 L48 48 M48 16 L43 21 M21 43 L16 48"/>
  </g>
  <g id="menu" transform="translate(320 64)">
    <path class="icon" d="M16 20 H48 M16 32 H48 M16 44 H48"/>
  </g>
  <g id="close" transform="translate(384 64)">
    <path class="danger" d="M18 18 L46 46 M46 18 L18 46"/>
  </g>
  <g id="alert" transform="translate(448 64)">
    <path class="danger" d="M32 12 L54 50 H10 Z"/>
    <path class="danger" d="M32 25 V36"/>
    <circle class="dangerFill" cx="32" cy="43" r="2.5"/>
  </g>

  <g id="zoom_in" transform="translate(0 128)">
    <circle class="icon" cx="28" cy="28" r="14"/>
    <path class="icon" d="M39 39 L50 50 M28 20 V36 M20 28 H36"/>
  </g>
  <g id="zoom_out" transform="translate(64 128)">
    <circle class="icon" cx="28" cy="28" r="14"/>
    <path class="icon" d="M39 39 L50 50 M20 28 H36"/>
  </g>
  <g id="focus" transform="translate(128 128)">
    <circle class="accent" cx="32" cy="32" r="10"/>
    <path class="icon" d="M32 10 V20 M32 44 V54 M10 32 H20 M44 32 H54"/>
  </g>
  <g id="layers" transform="translate(192 128)">
    <path class="icon" d="M32 12 L52 23 L32 34 L12 23 Z"/>
    <path class="icon" d="M15 33 L32 43 L49 33"/>
    <path class="icon" d="M15 43 L32 53 L49 43"/>
  </g>
  <g id="filter" transform="translate(256 128)">
    <path class="icon" d="M13 17 H51 L38 32 V48 L26 54 V32 Z"/>
  </g>
  <g id="route" transform="translate(320 128)">
    <circle class="accent" cx="17" cy="44" r="5"/>
    <circle class="accent" cx="47" cy="18" r="5"/>
    <path class="icon" d="M22 42 C34 40 30 22 42 20"/>
  </g>
  <g id="warp_lane" transform="translate(384 128)">
    <path class="accent" d="M10 33 C20 16 31 50 42 26 C46 18 50 17 54 20"/>
    <path class="accent" d="M46 15 L55 20 L46 25"/>
  </g>
  <g id="map_pin" transform="translate(448 128)">
    <path class="icon" d="M32 54 C22 41 16 32 16 23 C16 14 23 8 32 8 C41 8 48 14 48 23 C48 32 42 41 32 54 Z"/>
    <circle class="accent" cx="32" cy="23" r="6"/>
  </g>

  <g id="star" transform="translate(0 192)">
    <path class="icon" d="M32 8 L37 26 L56 32 L37 38 L32 56 L27 38 L8 32 L27 26 Z"/>
    <circle class="accentFill" cx="32" cy="32" r="4"/>
  </g>
  <g id="planet" transform="translate(64 192)">
    <circle class="icon" cx="32" cy="32" r="16"/>
    <path class="thin" d="M13 37 C23 30 41 26 52 27 M12 31 C24 37 41 39 52 34"/>
  </g>
  <g id="controlled" transform="translate(128 192)">
    <circle class="accent" cx="32" cy="32" r="17"/>
    <path class="accent" d="M22 32 L29 39 L43 24"/>
  </g>
  <g id="allied" transform="translate(192 192)">
    <circle class="accent" cx="22" cy="32" r="9"/>
    <circle class="accent" cx="42" cy="32" r="9"/>
    <path class="accent" d="M31 32 H33"/>
  </g>
  <g id="neutral" transform="translate(256 192)">
    <circle class="icon" cx="32" cy="32" r="16"/>
    <path class="icon" d="M22 32 H42"/>
  </g>
  <g id="hostile" transform="translate(320 192)">
    <circle class="danger" cx="32" cy="32" r="16"/>
    <path class="danger" d="M23 23 L41 41 M41 23 L23 41"/>
  </g>
  <g id="request" transform="translate(384 192)">
    <path class="icon" d="M17 16 H47 V42 H31 L21 52 V42 H17 Z"/>
    <path class="accent" d="M25 25 H39 M25 33 H34"/>
  </g>
  <g id="threat" transform="translate(448 192)">
    <path class="danger" d="M32 14 L47 23 V39 L32 50 L17 39 V23 Z"/>
    <path class="danger" d="M24 26 L40 38 M40 26 L24 38"/>
  </g>

  <g id="resource" transform="translate(0 256)">
    <path class="icon" d="M32 10 L51 21 V43 L32 54 L13 43 V21 Z"/>
    <path class="thin" d="M32 10 V32 L51 21 M32 32 L13 21 M32 32 V54"/>
  </g>
  <g id="construction" transform="translate(64 256)">
    <path class="icon" d="M16 48 L48 16"/>
    <path class="icon" d="M39 11 L53 25"/>
    <path class="icon" d="M14 22 L28 8 L34 14 L20 28 Z"/>
  </g>
  <g id="plot_course" transform="translate(128 256)">
    <circle class="accent" cx="18" cy="44" r="4"/>
    <circle class="accent" cx="46" cy="17" r="4"/>
    <path class="icon" d="M22 42 L31 31 L29 24 L42 19"/>
    <path class="icon" d="M36 17 H46 V27"/>
  </g>
  <g id="divide" transform="translate(192 256)">
    <path class="icon" d="M32 12 V28"/>
    <path class="icon" d="M32 28 L17 44 M32 28 L47 44"/>
    <circle class="accentFill" cx="32" cy="12" r="4"/>
    <circle class="fill" cx="17" cy="44" r="4"/>
    <circle class="fill" cx="47" cy="44" r="4"/>
  </g>
  <g id="merge" transform="translate(256 256)">
    <path class="icon" d="M17 16 L32 32 L47 16 M32 32 V52"/>
    <circle class="fill" cx="17" cy="16" r="4"/>
    <circle class="fill" cx="47" cy="16" r="4"/>
    <circle class="accentFill" cx="32" cy="52" r="4"/>
  </g>
  <g id="land_squads" transform="translate(320 256)">
    <path class="icon" d="M32 12 V43"/>
    <path class="icon" d="M20 31 L32 43 L44 31"/>
    <path class="thin" d="M16 50 H48"/>
  </g>
  <g id="load_squads" transform="translate(384 256)">
    <path class="icon" d="M32 50 V19"/>
    <path class="icon" d="M20 31 L32 19 L44 31"/>
    <path class="thin" d="M16 50 H48"/>
  </g>
  <g id="in_orbit" transform="translate(448 256)">
    <circle class="accent" cx="32" cy="32" r="10"/>
    <path class="icon" d="M12 32 C20 18 44 18 52 32 C44 46 20 46 12 32 Z"/>
  </g>

  <g id="hq" transform="translate(0 320)">
    <path class="icon" d="M32 10 L49 22 V43 L32 54 L15 43 V22 Z"/>
    <path class="icon" d="M22 37 H42 M32 20 V46"/>
  </g>
  <g id="scout" transform="translate(64 320)">
    <circle class="icon" cx="32" cy="28" r="12"/>
    <path class="icon" d="M17 28 C24 16 40 16 47 28 C40 40 24 40 17 28 Z"/>
    <path class="thin" d="M25 47 L32 40 L39 47"/>
  </g>
  <g id="elite" transform="translate(128 320)">
    <path class="icon" d="M32 10 L39 25 L55 27 L43 39 L46 55 L32 47 L18 55 L21 39 L9 27 L25 25 Z"/>
  </g>
  <g id="tactical" transform="translate(192 320)">
    <path class="icon" d="M14 24 H42 L50 32 L42 40 H14 Z"/>
    <path class="thin" d="M20 24 V40 M44 28 H54"/>
  </g>
  <g id="assault" transform="translate(256 320)">
    <path class="icon" d="M20 49 L32 13 L44 49"/>
    <path class="icon" d="M21 33 H43 M24 42 H40"/>
  </g>
  <g id="devastator" transform="translate(320 320)">
    <path class="icon" d="M14 38 H48 L54 45 H20 Z"/>
    <path class="icon" d="M20 28 H48 V38 H20 Z"/>
    <path class="thin" d="M49 31 H56 M24 28 V21 H42"/>
  </g>
  <g id="bodyguard" transform="translate(384 320)">
    <path class="icon" d="M32 11 L50 18 V31 C50 43 42 51 32 55 C22 51 14 43 14 31 V18 Z"/>
    <path class="thin" d="M32 20 V45 M23 32 H41"/>
  </g>
  <g id="vehicle" transform="translate(448 320)">
    <path class="icon" d="M13 38 H51 L45 24 H21 Z"/>
    <circle class="icon" cx="23" cy="43" r="5"/>
    <circle class="icon" cx="41" cy="43" r="5"/>
    <path class="thin" d="M27 24 L34 15 H43"/>
  </g>

  <g id="infantry" transform="translate(0 384)">
    <use href="#person-shape"/>
  </g>
  <g id="ship" transform="translate(64 384)">
    <use href="#ship-shape"/>
  </g>
  <g id="objective" transform="translate(128 384)">
    <path class="icon" d="M18 52 V13 H45 L39 24 L45 35 H18"/>
    <circle class="accentFill" cx="32" cy="31" r="4"/>
  </g>
  <g id="wounded" transform="translate(192 384)">
    <path class="danger" d="M32 14 V50 M14 32 H50"/>
    <path class="muted" d="M20 18 L46 44"/>
  </g>
  <g id="medical" transform="translate(256 384)">
    <path class="icon" d="M32 14 V50 M14 32 H50"/>
    <circle class="accent" cx="32" cy="32" r="18"/>
  </g>
  <g id="training" transform="translate(320 384)">
    <path class="icon" d="M16 46 L48 18"/>
    <path class="icon" d="M18 18 L46 46"/>
    <circle class="accentFill" cx="32" cy="32" r="4"/>
  </g>
  <g id="locked" transform="translate(384 384)">
    <rect class="icon" x="17" y="28" width="30" height="22" rx="3"/>
    <path class="icon" d="M23 28 V21 C23 13 41 13 41 21 V28"/>
  </g>
  <g id="in_transit" transform="translate(448 384)">
    <use href="#chevron-up"/>
    <path class="icon" d="M18 50 H46"/>
    <path class="accent" d="M17 20 H47"/>
  </g>

  <g id="rank_initiate" transform="translate(0 448)">
    <path class="icon" d="M20 44 H44"/>
  </g>
  <g id="rank_battle_brother" transform="translate(64 448)">
    <path class="icon" d="M20 44 H44 M20 34 H44"/>
  </g>
  <g id="rank_veteran" transform="translate(128 448)">
    <path class="icon" d="M20 47 H44 M20 37 H44 M20 27 H44"/>
  </g>
  <g id="rank_sergeant" transform="translate(192 448)">
    <path class="icon" d="M18 46 L32 30 L46 46"/>
    <path class="icon" d="M18 34 L32 18 L46 34"/>
  </g>
  <g id="rank_captain" transform="translate(256 448)">
    <path class="icon" d="M32 10 L39 25 L55 27 L43 39 L46 55 L32 47 L18 55 L21 39 L9 27 L25 25 Z"/>
    <path class="thin" d="M32 20 V43"/>
  </g>
  <g id="rank_commander" transform="translate(320 448)">
    <path class="icon" d="M17 48 L24 18 L32 33 L40 18 L47 48 Z"/>
    <path class="thin" d="M22 48 H42"/>
  </g>
  <g id="award" transform="translate(384 448)">
    <circle class="icon" cx="32" cy="25" r="12"/>
    <path class="icon" d="M25 36 L21 54 L32 47 L43 54 L39 36"/>
  </g>
  <g id="in_warp" transform="translate(448 448)">
    <path class="accent" d="M12 34 C21 12 34 52 44 25 C48 15 52 13 56 18"/>
    <circle class="dangerFill" cx="22" cy="44" r="3"/>
    <circle class="dangerFill" cx="43" cy="20" r="3"/>
  </g>
</svg>
